<?xml version="1.0" standalone="no"?>
<!DOCTYPE svg PUBLIC "-//W3C//DTD SVG 20010904//EN"
 "http://www.w3.org/TR/2001/REC-SVG-20010904/DTD/svg10.dtd">
<svg version="1.0" xmlns="http://www.w3.org/2000/svg"
 width="698.000000pt" height="698.000000pt" viewBox="0 0 698.000000 698.000000"
 preserveAspectRatio="xMidYMid meet">
<metadata>
Created by potrace 1.11, written by Peter Selinger 2001-2013
</metadata>
<g transform="translate(0.000000,698.000000) scale(0.100000,-0.100000)"
fill="#000000" stroke="none">
<path d="M3099 6976 c-2 -2 -27 -6 -54 -10 -156 -18 -399 -77 -610 -146 -82
-28 -159 -54 -170 -59 -11 -6 -54 -24 -95 -42 -113 -48 -396 -193 -410 -210
-3 -3 -21 -14 -40 -24 -94 -48 -330 -222 -500 -370 -58 -50 -231 -226 -299
-302 -446 -505 -752 -1169 -837 -1818 -3 -22 -7 -51 -10 -65 -26 -162 -25
-710 1 -849 1 -9 6 -38 9 -66 12 -86 17 -119 21 -135 2 -8 7 -31 10 -50 53
-314 209 -738 391 -1060 67 -118 215 -339 285 -425 377 -459 747 -759 1224
-990 259 -126 610 -246 815 -280 29 -4 60 -11 100 -20 3 -1 30 -5 60 -9 30 -5
62 -10 70 -11 155 -28 507 -39 655 -21 28 3 75 8 106 11 31 3 64 7 75 9 10 2
44 7 74 11 30 4 62 9 70 10 382 77 633 160 941 315 244 122 437 246 657 424
197 159 396 361 559 566 145 184 316 465 412 680 54 123 58 132 89 210 74 188
165 515 178 637 3 32 7 60 9 63 2 3 6 37 10 75 3 39 8 77 10 85 17 61 24 454
12 627 -8 115 -25 265 -37 323 -4 25 -14 74 -21 110 -148 789 -595 1531 -1234
2051 -328 265 -708 471 -1130 611 -125 41 -360 99 -480 118 -38 6 -83 14 -100
17 -33 7 -809 16 -816 9z m646 -321 c44 -5 179 -25 270 -41 17 -3 86 -19 155
-35 904 -221 1668 -829 2082 -1655 164 -328 279 -705 314 -1024 3 -30 7 -66
10 -80 19 -114 22 -535 4 -584 -5 -16 -8 -16 -21 -4 -16 16 -301 239 -439 343
-296 224 -465 390 -565 554 -51 84 -194 289 -239 343 -156 188 -314 261 -541
250 -190 -8 -217 -7 -269 16 -98 44 -115 68 -331 486 -182 354 -341 569 -471
638 -70 38 -163 61 -216 53 -100 -15 -187 -101 -248 -247 -104 -245 -204 -305
-523 -313 -187 -4 -216 -9 -302 -50 -83 -40 -173 -117 -278 -240 -88 -103 -97
-114 -266 -333 -264 -345 -417 -471 -574 -474 -55 -1 -76 4 -142 35 -42 20
-88 37 -101 37 -89 0 -210 -126 -411 -430 -125 -188 -174 -251 -287 -368 -68
-70 -81 -80 -89 -65 -9 14 -3 300 7 373 2 14 7 48 10 75 4 28 14 88 22 135 9
47 18 96 20 110 9 49 65 254 94 339 339 1021 1207 1824 2243 2075 134 33 182
43 252 52 17 2 55 8 85 14 30 5 96 12 145 16 50 3 92 8 94 10 5 5 449 -4 506
-11z m-179 -994 c56 -26 152 -121 208 -208 26 -40 90 -157 143 -260 135 -264
174 -336 226 -412 91 -134 176 -217 267 -259 66 -31 190 -39 262 -17 126 37
224 27 279 -29 16 -17 57 -76 91 -131 99 -163 130 -200 357 -425 236 -236 255
-255 451 -475 313 -352 414 -455 629 -642 l34 -29 -28 -100 c-15 -54 -30 -102
-32 -106 -7 -12 -241 178 -443 360 -190 171 -504 495 -564 582 -63 91 -167
229 -218 288 -68 79 -245 244 -308 286 -103 70 -110 71 -164 47 -57 -25 -84
-75 -80 -148 8 -149 30 -273 64 -369 10 -31 18 -55 16 -53 -7 7 -60 76 -81
105 -58 81 -408 515 -460 570 -5 6 -23 28 -40 49 -16 21 -42 52 -56 69 -25 30
-158 207 -189 252 -66 95 -100 146 -100 150 0 2 -16 28 -35 58 -62 97 -142
265 -191 399 -20 56 -47 79 -83 70 -26 -6 -166 -123 -280 -234 -74 -72 -250
-193 -315 -215 -38 -14 -175 -49 -226 -57 -218 -39 -311 -136 -579 -607 -146
-256 -213 -352 -304 -435 l-67 -61 37 -30 c135 -106 386 -243 588 -321 82 -32
313 -107 360 -118 11 -2 45 -11 75 -20 30 -8 114 -26 185 -40 72 -14 140 -27
153 -30 13 -2 31 -6 40 -9 9 -3 35 -7 57 -11 22 -3 66 -10 97 -16 107 -19 206
-35 263 -44 22 -3 78 -12 125 -20 47 -7 103 -16 125 -20 22 -3 47 -7 55 -10 8
-2 36 -6 61 -9 61 -8 294 -54 344 -68 22 -6 45 -12 50 -14 51 -12 213 -77 310
-124 419 -204 705 -503 838 -875 22 -62 31 -97 52 -210 3 -16 8 -86 9 -155 4
-124 -16 -265 -53 -372 -27 -80 -368 -328 -651 -472 -176 -90 -491 -214 -610
-240 -14 -3 -74 -17 -135 -30 -60 -14 -128 -28 -150 -32 -22 -3 -44 -7 -50 -8
-15 -4 -95 -16 -135 -21 -179 -22 -576 -22 -711 0 -13 2 -46 6 -74 10 -353 43
-779 183 -1100 363 -141 78 -410 259 -435 292 -3 3 -14 13 -26 21 -59 40 -256
228 -249 238 2 5 53 14 112 21 59 8 110 14 113 15 16 4 268 18 525 30 72 3
153 8 180 10 77 7 167 16 195 20 14 2 45 7 70 10 25 3 52 8 60 10 8 2 31 7 50
10 54 9 210 54 260 76 195 86 315 193 395 354 130 261 77 500 -164 743 -126
128 -364 297 -501 356 -70 31 -273 136 -330 171 -34 21 -75 44 -177 101 -97
54 -210 142 -326 256 l-120 116 -101 -18 c-63 -12 -120 -16 -151 -12 -28 3
-93 6 -145 6 -89 1 -99 -1 -155 -32 -147 -80 -266 -191 -490 -457 -66 -78
-137 -158 -150 -167 -13 -10 -26 -10 -23 0 1 4 -1 23 -5 42 -4 19 -9 46 -12
60 -12 60 -24 160 -31 265 l-6 80 164 136 c89 75 173 145 184 155 12 11 48 42
80 69 32 28 127 110 212 183 126 109 158 132 175 126 78 -25 129 -33 201 -30
85 4 96 6 162 29 161 58 317 182 492 392 93 112 247 338 312 460 136 255 217
308 510 330 154 12 194 15 225 21 185 31 307 128 398 312 49 101 92 152 125
152 9 0 35 -9 58 -19z"/>
</g>
</svg>
